<?xml version="1.0" encoding="UTF-8" standalone="no"?>
<!-- Created with Inkscape (http://www.inkscape.org/) -->

<svg
   width="1360"
   height="1680"
   viewBox="0 0 1360 1680"
   version="1.1"
   id="svg1"
   inkscape:version="1.3.2 (091e20e, 2023-11-25, custom)"
   sodipodi:docname="island.svg"
   xmlns:inkscape="http://www.inkscape.org/namespaces/inkscape"
   xmlns:sodipodi="http://sodipodi.sourceforge.net/DTD/sodipodi-0.dtd"
   xmlns="http://www.w3.org/2000/svg"
   xmlns:svg="http://www.w3.org/2000/svg">
  <sodipodi:namedview
     id="namedview1"
     pagecolor="#ffffff"
     bordercolor="#999999"
     borderopacity="1"
     inkscape:showpageshadow="2"
     inkscape:pageopacity="0"
     inkscape:pagecheckerboard="0"
     inkscape:deskcolor="#d1d1d1"
     inkscape:document-units="px"
     inkscape:zoom="0.13086758"
     inkscape:cx="3132.9379"
     inkscape:cy="958.98465"
     inkscape:window-width="1920"
     inkscape:window-height="1009"
     inkscape:window-x="-8"
     inkscape:window-y="-8"
     inkscape:window-maximized="1"
     inkscape:current-layer="layer1" />
  <defs
     id="defs1" />
  <g
     inkscape:label="Ebene 1"
     inkscape:groupmode="layer"
     id="layer1">
    <rect
       style="fill:#729fcf;stroke:none;stroke-width:7.55904;stroke-linecap:square;paint-order:fill markers stroke"
       id="rect2"
       width="1220"
       height="1220"
       x="70"
       y="70" />
    <ellipse
       style="fill:#fce94f;stroke:none;stroke-width:10;stroke-linecap:square;stroke-dasharray:none;stroke-opacity:1;paint-order:fill markers stroke"
       id="path6"
       cx="222.30115"
       cy="178.94345"
       rx="81.188919"
       ry="75.457962" />
    <rect
       style="fill:#3465a4;stroke:#000000;stroke-width:10;stroke-linecap:square;paint-order:fill markers stroke;stroke-dasharray:none"
       id="rect3"
       width="1283.7404"
       height="465.80194"
       x="22.923937"
       y="859.9657" />
    <path
       id="path3"
       style="fill:#e9b96e;stroke:#000000;stroke-width:10;stroke-linecap:square;paint-order:fill markers stroke;stroke-dasharray:none"
       d="m 588.65171,901.68281 c -10e-6,44.76177 -92.53079,81.04835 -206.67329,81.04835 -114.14251,0 -206.67329,-36.28658 -206.6733,-81.04835 -10e-6,-44.76177 30.44512,-108.74812 144.58764,-108.74812 114.14251,0 268.75896,63.98635 268.75895,108.74812 z"
       sodipodi:nodetypes="sssss" />
    <path
       id="path3-4"
       style="fill:#c17d11;stroke:none;stroke-width:10;stroke-linecap:square;stroke-dasharray:none;paint-order:fill markers stroke"
       d="m 583.25184,901.52233 c -10e-6,44.76177 -84.42595,76.32056 -198.56845,76.32056 -114.14251,0 -205.32248,-35.61121 -205.32249,-80.37298 -10e-6,-44.76177 45.30398,38.48972 159.4465,38.48972 114.14251,0 244.44445,-79.19907 244.44444,-34.4373 z"
       sodipodi:nodetypes="sssss" />
    <path
       id="path4"
       style="fill:#d3d7cf;stroke:#000000;stroke-width:9.99999;stroke-linecap:square;stroke-dasharray:none;stroke-opacity:1;paint-order:fill markers stroke"
       d="m 1092.268,195.66881 a 196.76378,38.641943 0 0 0 -196.2188,36.86965 188.70247,40.292715 11.551544 0 0 -138.94141,7.43759 188.70247,40.292715 11.551544 0 0 68.15625,50.6725 160.46754,38.641943 0 0 0 117.29883,31.83977 188.70247,40.292715 11.551544 0 0 181.49023,-0.34202 188.70247,40.292715 11.551544 0 0 -4.3281,-16.50064 160.46754,38.641943 0 0 0 24.7344,-20.48642 160.46754,38.641943 0 0 0 -9.6075,-13.16619 196.76378,38.641943 0 0 0 154.1797,-37.68238 196.76378,38.641943 0 0 0 -196.7636,-38.64186 z" />
    <path
       id="path4-4"
       style="fill:#eeeeec;stroke:#000000;stroke-width:9.99999;stroke-linecap:square;stroke-dasharray:none;stroke-opacity:1;paint-order:fill markers stroke"
       d="m 1043.6699,169.82104 a 196.33523,42.643085 5.0344707 0 0 -201.46644,24.5756 196.33523,42.643085 5.0344707 0 0 0.39971,2.94536 196.33523,42.643085 5.0344707 0 0 -154.92236,27.5632 196.33523,42.643085 5.0344707 0 0 189.57988,59.98848 196.33523,42.643085 5.0344707 0 0 201.46641,-24.5756 196.33523,42.643085 5.0344707 0 0 -0.091,-2.93005 196.33523,42.643085 5.0344707 0 0 154.614,-27.57851 196.33523,42.643085 5.0344707 0 0 -189.5799,-59.98848 z" />
    <path
       id="path4-4-3"
       style="fill:#ffffff;stroke:#000000;stroke-width:9.99999;stroke-linecap:square;stroke-dasharray:none;stroke-opacity:1;paint-order:fill markers stroke"
       d="m 957.11886,126.89011 a 196.76378,42.55021 0 0 0 -196.76367,42.5503 196.76378,42.55021 0 0 0 0.81836,2.92532 196.76378,42.55021 0 0 0 -147.93164,41.19581 196.76378,42.55021 0 0 0 196.76367,42.55031 196.76378,42.55021 0 0 0 196.76362,-42.55031 196.76378,42.55021 0 0 0 -0.5136,-2.94569 196.76378,42.55021 0 0 0 31.3301,-2.43149 151.87106,53.66693 0 0 0 136.082,30.09969 151.87106,53.66693 0 0 0 151.8711,-53.66681 151.87106,53.66693 0 0 0 -151.8711,-53.66681 151.87106,53.66693 0 0 0 -79.3555,7.9968 196.76378,42.55021 0 0 0 -137.19334,-12.05712 z" />
    <path
       id="rect1"
       style="fill:#ffffff;stroke-width:2;stroke-linecap:square;paint-order:fill markers stroke;stroke:none"
       d="M 0 0 L 0 1680 L 1360 1680 L 1360 0 L 0 0 z M 70 70 L 1290 70 L 1290 1290 L 70 1290 L 70 70 z " />
    <path
       id="rect4-8-9-2-3"
       style="fill:#8f5902;stroke:#000000;stroke-width:10;stroke-linecap:square;paint-order:fill markers stroke"
       d="m 314.21809,664.68592 18.8396,32.49366 -33.39767,18.43435 -14.07213,-16.02904 z"
       sodipodi:nodetypes="ccccc" />
    <path
       id="rect4-8-9-2"
       style="fill:#8f5902;stroke:#000000;stroke-width:10;stroke-linecap:square;paint-order:fill markers stroke"
       d="m 282.08504,692.66096 27.13289,25.97258 -26.95362,26.99503 -17.97469,-11.48328 z"
       sodipodi:nodetypes="ccccc" />
    <path
       id="rect4-8-9"
       style="fill:#8f5902;stroke:#000000;stroke-width:10;stroke-linecap:square;paint-order:fill markers stroke"
       d="m 256.87326,728.09584 37.79223,16.46144 -17.50183,38.03309 -22.86389,-5.01012 z"
       sodipodi:nodetypes="ccccc" />
    <path
       id="rect4-8"
       style="fill:#8f5902;stroke:#000000;stroke-width:10;stroke-linecap:square;paint-order:fill markers stroke"
       d="m 289.60602,770.2671 -40.59448,7.16373 8.1189,41.07205 23.40152,0.47758 z"
       sodipodi:nodetypes="ccccc" />
    <ellipse
       style="fill:#c17d11;stroke:none;stroke-width:10;stroke-linecap:square;stroke-dasharray:none;stroke-opacity:1;paint-order:fill markers stroke"
       id="path5"
       cx="299.44391"
       cy="864.42346"
       rx="56.832256"
       ry="21.968773" />
    <path
       id="rect4"
       style="fill:#8f5902;stroke:#000000;stroke-width:10;stroke-linecap:square;paint-order:fill markers stroke"
       d="m 246.39496,810.92017 40.59448,7.16373 -8.1189,41.07205 -23.40152,0.47758 z"
       sodipodi:nodetypes="ccccc" />
    <path
       id="rect5-0-9"
       style="fill:#4e9a06;stroke:#000000;stroke-width:10;stroke-linecap:square;paint-order:fill markers stroke"
       d="m 331.89706,677.91299 -0.7227,-15.11986 46.91797,-9.76644 37.16425,60.76494 z"
       sodipodi:nodetypes="ccccc" />
    <path
       id="rect5-0"
       style="fill:#4e9a06;stroke:#000000;stroke-width:10;stroke-linecap:square;paint-order:fill markers stroke"
       d="m 321.87452,671.97337 9.04389,-12.13839 42.44442,22.25197 -9.88213,70.54008 z"
       sodipodi:nodetypes="ccccc" />
    <g
       id="g5"
       transform="matrix(-0.46088414,-0.88746031,-0.88746031,0.46088414,1011.7372,656.05142)">
      <path
         id="rect5-0-9-2"
         style="fill:#4e9a06;stroke:#000000;stroke-width:10;stroke-linecap:square;paint-order:fill markers stroke"
         d="m 311.05035,621.49895 -0.7227,-15.11986 46.91797,-9.76644 37.16425,60.76494 z"
         sodipodi:nodetypes="ccccc" />
      <path
         id="rect5-0-0"
         style="fill:#4e9a06;stroke:#000000;stroke-width:10;stroke-linecap:square;paint-order:fill markers stroke"
         d="m 301.02781,615.55933 9.04389,-12.13839 42.44442,22.25197 -9.88213,70.54008 z"
         sodipodi:nodetypes="ccccc" />
      <path
         id="rect5-5"
         style="fill:#4e9a06;stroke:#000000;stroke-width:10;stroke-linecap:square;paint-order:fill markers stroke"
         d="m 299.35974,622.428 13.80529,-6.20857 26.26701,40.08395 -42.93779,56.83226 z"
         sodipodi:nodetypes="ccccc" />
    </g>
    <path
       id="rect5"
       style="fill:#4e9a06;stroke:#000000;stroke-width:10;stroke-linecap:square;paint-order:fill markers stroke"
       d="m 320.20645,678.84204 13.80529,-6.20857 26.26701,40.08395 -42.93779,56.83226 z"
       sodipodi:nodetypes="ccccc" />
  </g>
</svg>
