<?xml version="1.0" encoding="UTF-8" standalone="no"?>
<!-- Created with Inkscape (http://www.inkscape.org/) -->

<svg
   width="1360"
   height="1680"
   viewBox="0 0 1360 1680"
   version="1.1"
   id="svg1"
   inkscape:version="1.3.2 (091e20e, 2023-11-25, custom)"
   sodipodi:docname="rocket.svg"
   inkscape:export-filename="..\fadeproject\pngs\text\rocket.png"
   inkscape:export-xdpi="96"
   inkscape:export-ydpi="96"
   xmlns:inkscape="http://www.inkscape.org/namespaces/inkscape"
   xmlns:sodipodi="http://sodipodi.sourceforge.net/DTD/sodipodi-0.dtd"
   xmlns="http://www.w3.org/2000/svg"
   xmlns:svg="http://www.w3.org/2000/svg">
  <sodipodi:namedview
     id="namedview1"
     pagecolor="#ffffff"
     bordercolor="#999999"
     borderopacity="1"
     inkscape:showpageshadow="2"
     inkscape:pageopacity="0"
     inkscape:pagecheckerboard="0"
     inkscape:deskcolor="#d1d1d1"
     inkscape:document-units="px"
     inkscape:zoom="0.26173516"
     inkscape:cx="808.06874"
     inkscape:cy="945.61235"
     inkscape:window-width="1920"
     inkscape:window-height="1009"
     inkscape:window-x="-8"
     inkscape:window-y="-8"
     inkscape:window-maximized="1"
     inkscape:current-layer="layer1" />
  <defs
     id="defs1" />
  <g
     inkscape:label="Ebene 1"
     inkscape:groupmode="layer"
     id="layer1">
    <rect
       style="fill:#ffffff;stroke-width:2;stroke-linecap:square;paint-order:fill markers stroke;stroke:none"
       id="rect1"
       width="1360"
       height="1680"
       x="0"
       y="0" />
    <rect
       style="fill:#0e0027;stroke:none;stroke-width:7.55904;stroke-linecap:square;paint-order:fill markers stroke;fill-opacity:1"
       id="rect2"
       width="1220"
       height="1220"
       x="70"
       y="70"
       inkscape:export-filename="..\export\rocket.png"
       inkscape:export-xdpi="96"
       inkscape:export-ydpi="96" />
    <path
       sodipodi:type="star"
       style="fill:#fce94f;fill-opacity:1;stroke:none;stroke-width:60.2058;stroke-linecap:square;paint-order:fill markers stroke"
       id="path2"
       inkscape:flatsided="false"
       sodipodi:sides="11"
       sodipodi:cx="282.99384"
       sodipodi:cy="254.62691"
       sodipodi:r1="114.223"
       sodipodi:r2="92.408356"
       sodipodi:arg1="0.49273993"
       sodipodi:arg2="0.77833926"
       inkscape:rounded="3.46945e-18"
       inkscape:randomized="0"
       d="m 383.62887,308.65914 -34.83284,10.84747 -10.35464,34.98252 -35.16785,-9.70659 -27.62385,23.83102 -24.33729,-27.17887 -36.12269,5.11335 -5.77982,-36.02206 -33.15283,-15.22777 14.6127,-33.4285 -19.65718,-30.73419 30.36579,-20.22161 0.0795,-36.48272 36.47796,-0.59452 19.79092,-30.64824 31.00863,19.22133 33.21887,-15.08316 15.69429,32.93454 36.10006,5.27072 -4.60288,36.19127 27.51974,23.95118 -23.43867,27.95753 z"
       inkscape:transform-center-x="1.0415166"
       inkscape:transform-center-y="0.79235064"
       transform="matrix(0.16611371,0,0,0.16607998,112.25302,100.36699)" />
    <path
       sodipodi:type="star"
       style="fill:#fce94f;fill-opacity:1;stroke:none;stroke-width:145.443;stroke-linecap:square;paint-order:fill markers stroke"
       id="path2-2"
       inkscape:flatsided="false"
       sodipodi:sides="11"
       sodipodi:cx="282.99384"
       sodipodi:cy="254.62691"
       sodipodi:r1="114.223"
       sodipodi:r2="92.408356"
       sodipodi:arg1="0.49273993"
       sodipodi:arg2="0.77833926"
       inkscape:rounded="3.46945e-18"
       inkscape:randomized="0"
       d="m 383.62887,308.65914 -34.83284,10.84747 -10.35464,34.98252 -35.16785,-9.70659 -27.62385,23.83102 -24.33729,-27.17887 -36.12269,5.11335 -5.77982,-36.02206 -33.15283,-15.22777 14.6127,-33.4285 -19.65718,-30.73419 30.36579,-20.22161 0.0795,-36.48272 36.47796,-0.59452 19.79092,-30.64824 31.00863,19.22133 33.21887,-15.08316 15.69429,32.93454 36.10006,5.27072 -4.60288,36.19127 27.51974,23.95118 -23.43867,27.95753 z"
       inkscape:transform-center-x="0.43112224"
       inkscape:transform-center-y="0.32799386"
       transform="matrix(0.06876236,0,0,0.06874839,1158.1946,107.15603)" />
    <path
       sodipodi:type="star"
       style="fill:#fce94f;fill-opacity:1;stroke:none;stroke-width:145.443;stroke-linecap:square;paint-order:fill markers stroke"
       id="path2-2-1"
       inkscape:flatsided="false"
       sodipodi:sides="11"
       sodipodi:cx="282.99384"
       sodipodi:cy="254.62691"
       sodipodi:r1="114.223"
       sodipodi:r2="92.408356"
       sodipodi:arg1="0.49273993"
       sodipodi:arg2="0.77833926"
       inkscape:rounded="3.46945e-18"
       inkscape:randomized="0"
       d="m 383.62887,308.65914 -34.83284,10.84747 -10.35464,34.98252 -35.16785,-9.70659 -27.62385,23.83102 -24.33729,-27.17887 -36.12269,5.11335 -5.77982,-36.02206 -33.15283,-15.22777 14.6127,-33.4285 -19.65718,-30.73419 30.36579,-20.22161 0.0795,-36.48272 36.47796,-0.59452 19.79092,-30.64824 31.00863,19.22133 33.21887,-15.08316 15.69429,32.93454 36.10006,5.27072 -4.60288,36.19127 27.51974,23.95118 -23.43867,27.95753 z"
       inkscape:transform-center-x="0.43112224"
       inkscape:transform-center-y="0.32799386"
       transform="matrix(0.06876236,0,0,0.06874839,1153.227,1120.156)" />
    <path
       sodipodi:type="star"
       style="fill:#fce94f;fill-opacity:1;stroke:none;stroke-width:145.443;stroke-linecap:square;paint-order:fill markers stroke"
       id="path2-2-8"
       inkscape:flatsided="false"
       sodipodi:sides="11"
       sodipodi:cx="282.99384"
       sodipodi:cy="254.62691"
       sodipodi:r1="114.223"
       sodipodi:r2="92.408356"
       sodipodi:arg1="0.49273993"
       sodipodi:arg2="0.77833926"
       inkscape:rounded="3.46945e-18"
       inkscape:randomized="0"
       d="m 383.62887,308.65914 -34.83284,10.84747 -10.35464,34.98252 -35.16785,-9.70659 -27.62385,23.83102 -24.33729,-27.17887 -36.12269,5.11335 -5.77982,-36.02206 -33.15283,-15.22777 14.6127,-33.4285 -19.65718,-30.73419 30.36579,-20.22161 0.0795,-36.48272 36.47796,-0.59452 19.79092,-30.64824 31.00863,19.22133 33.21887,-15.08316 15.69429,32.93454 36.10006,5.27072 -4.60288,36.19127 27.51974,23.95118 -23.43867,27.95753 z"
       inkscape:transform-center-x="0.43112224"
       inkscape:transform-center-y="0.32799386"
       transform="matrix(0.06876236,0,0,0.06874839,164.227,1195.156)" />
    <path
       sodipodi:type="star"
       style="fill:#fce94f;fill-opacity:1;stroke:none;stroke-width:145.443;stroke-linecap:square;paint-order:fill markers stroke"
       id="path2-2-16"
       inkscape:flatsided="false"
       sodipodi:sides="11"
       sodipodi:cx="282.99384"
       sodipodi:cy="254.62691"
       sodipodi:r1="114.223"
       sodipodi:r2="92.408356"
       sodipodi:arg1="0.49273993"
       sodipodi:arg2="0.77833926"
       inkscape:rounded="3.46945e-18"
       inkscape:randomized="0"
       d="m 383.62887,308.65914 -34.83284,10.84747 -10.35464,34.98252 -35.16785,-9.70659 -27.62385,23.83102 -24.33729,-27.17887 -36.12269,5.11335 -5.77982,-36.02206 -33.15283,-15.22777 14.6127,-33.4285 -19.65718,-30.73419 30.36579,-20.22161 0.0795,-36.48272 36.47796,-0.59452 19.79092,-30.64824 31.00863,19.22133 33.21887,-15.08316 15.69429,32.93454 36.10006,5.27072 -4.60288,36.19127 27.51974,23.95118 -23.43867,27.95753 z"
       inkscape:transform-center-x="0.43112224"
       inkscape:transform-center-y="0.32799386"
       transform="matrix(0.06876236,0,0,0.06874839,210.227,409.15603)" />
    <path
       sodipodi:type="star"
       style="fill:#fce94f;fill-opacity:1;stroke:none;stroke-width:145.443;stroke-linecap:square;paint-order:fill markers stroke"
       id="path2-2-2"
       inkscape:flatsided="false"
       sodipodi:sides="11"
       sodipodi:cx="282.99384"
       sodipodi:cy="254.62691"
       sodipodi:r1="114.223"
       sodipodi:r2="92.408356"
       sodipodi:arg1="0.49273993"
       sodipodi:arg2="0.77833926"
       inkscape:rounded="3.46945e-18"
       inkscape:randomized="0"
       d="m 383.62887,308.65914 -34.83284,10.84747 -10.35464,34.98252 -35.16785,-9.70659 -27.62385,23.83102 -24.33729,-27.17887 -36.12269,5.11335 -5.77982,-36.02206 -33.15283,-15.22777 14.6127,-33.4285 -19.65718,-30.73419 30.36579,-20.22161 0.0795,-36.48272 36.47796,-0.59452 19.79092,-30.64824 31.00863,19.22133 33.21887,-15.08316 15.69429,32.93454 36.10006,5.27072 -4.60288,36.19127 27.51974,23.95118 -23.43867,27.95753 z"
       inkscape:transform-center-x="0.43112224"
       inkscape:transform-center-y="0.32799386"
       transform="matrix(0.06876236,0,0,0.06874839,742.227,220.15603)" />
    <path
       sodipodi:type="star"
       style="fill:#fce94f;fill-opacity:1;stroke:none;stroke-width:145.443;stroke-linecap:square;paint-order:fill markers stroke"
       id="path2-2-6"
       inkscape:flatsided="false"
       sodipodi:sides="11"
       sodipodi:cx="282.99384"
       sodipodi:cy="254.62691"
       sodipodi:r1="114.223"
       sodipodi:r2="92.408356"
       sodipodi:arg1="0.49273993"
       sodipodi:arg2="0.77833926"
       inkscape:rounded="3.46945e-18"
       inkscape:randomized="0"
       d="m 383.62887,308.65914 -34.83284,10.84747 -10.35464,34.98252 -35.16785,-9.70659 -27.62385,23.83102 -24.33729,-27.17887 -36.12269,5.11335 -5.77982,-36.02206 -33.15283,-15.22777 14.6127,-33.4285 -19.65718,-30.73419 30.36579,-20.22161 0.0795,-36.48272 36.47796,-0.59452 19.79092,-30.64824 31.00863,19.22133 33.21887,-15.08316 15.69429,32.93454 36.10006,5.27072 -4.60288,36.19127 27.51974,23.95118 -23.43867,27.95753 z"
       inkscape:transform-center-x="0.43112224"
       inkscape:transform-center-y="0.32799386"
       transform="matrix(0.06876236,0,0,0.06874839,1164.227,706.15603)" />
    <path
       id="rect3"
       style="fill:#fce94f;stroke-width:10;stroke-linecap:square;paint-order:fill markers stroke"
       d="m 159.67627,139.58969 1108.39183,43.3007 v 0.0902 L 159.67627,144.93327 Z"
       sodipodi:nodetypes="ccccc" />
    <path
       id="rect7-7-0"
       style="fill:#fcaf3e;stroke-width:5;stroke-linecap:square;paint-order:fill markers stroke;stroke:#000000;stroke-opacity:1;stroke-dasharray:none"
       d="m 374.38099,989.0692 116.11271,48.2842 -125.5995,144.9407 -44.72593,-72.0194 z"
       sodipodi:nodetypes="ccccc" />
    <path
       id="rect7-7"
       style="fill:#f57900;stroke-width:5;stroke-linecap:square;paint-order:fill markers stroke;stroke:#000000;stroke-opacity:1;stroke-dasharray:none"
       d="m 465.47614,1036.3184 -77.10746,-61.25921 -51.84713,141.36741 66.34677,3.2485 z"
       sodipodi:nodetypes="ccccc" />
    <path
       id="rect7"
       style="fill:#cc0000;stroke-width:5;stroke-linecap:square;paint-order:fill markers stroke;stroke:#000000;stroke-opacity:1;stroke-dasharray:none"
       d="m 384.37361,1000.0803 72.87746,31.1895 -77.76617,81.4064 -18.83458,-37.7547 z"
       sodipodi:nodetypes="ccccc" />
    <rect
       style="fill:#555753;fill-opacity:1;stroke:#000000;stroke-width:10;stroke-linecap:square;paint-order:fill markers stroke;stroke-opacity:1"
       id="rect6"
       width="144.53622"
       height="91.854797"
       x="807.77191"
       y="578.91211"
       transform="rotate(30.512254)" />
    <path
       id="rect4"
       style="fill:#eeeeec;stroke-width:10;stroke-linecap:square;paint-order:fill markers stroke;stroke:#000000;stroke-opacity:1"
       d="m 586.11119,556.69258 c 154.07666,-129.5108 203.1213,-99.61251 161.26753,93.93159 L 540.56107,1058.174 328.75911,933.35204 Z"
       sodipodi:nodetypes="ccccc" />
    <path
       id="rect5"
       style="fill:#d3d7cf;stroke-width:10;stroke-linecap:square;paint-order:fill markers stroke;stroke:#000000;stroke-opacity:1"
       d="M 349.41273,775.81334 476.46526,746.47223 379.73911,882.38131 257.5939,959.67182 194.50914,929.54514 Z"
       sodipodi:nodetypes="cccccc" />
    <path
       id="rect5-9"
       style="fill:#babdb6;stroke-width:10;stroke-linecap:square;paint-order:fill markers stroke;stroke:#000000;stroke-opacity:1"
       d="m 671.32969,965.52968 -35.88036,-125.36287 -72.03935,150.45784 -8.44435,144.29815 56.91613,40.5938 z"
       sodipodi:nodetypes="cccccc" />
    <text
       xml:space="preserve"
       style="font-size:155.363px;line-height:1.25;font-family:NSimSun;-inkscape-font-specification:NSimSun;letter-spacing:0px;word-spacing:0px;stroke-width:0.999999"
       x="81.252754"
       y="1511.1567"
       id="text8"><tspan
         sodipodi:role="line"
         id="tspan8"
         x="81.252754"
         y="1511.1567"
         style="font-style:italic;font-variant:normal;font-weight:bold;font-stretch:normal;font-size:155.363px;font-family:Caladea;-inkscape-font-specification:'Caladea, Bold Italic';font-variant-ligatures:normal;font-variant-caps:normal;font-variant-numeric:normal;font-variant-east-asian:normal;stroke-width:0.999999">SCIENCE EXHIBIT</tspan></text>
  </g>
</svg>
